<?xml version="1.0" standalone="no"?>
<!DOCTYPE svg PUBLIC "-//W3C//DTD SVG 20010904//EN"
 "http://www.w3.org/TR/2001/REC-SVG-20010904/DTD/svg10.dtd">
<svg version="1.0" xmlns="http://www.w3.org/2000/svg"
 width="720.000000pt" height="720.000000pt" viewBox="0 0 720.000000 720.000000"
 preserveAspectRatio="xMidYMid meet">
<metadata>
Created by potrace 1.14, written by Peter Selinger 2001-2017
</metadata>
<g transform="translate(0.000000,720.000000) scale(0.100000,-0.100000)"
fill="#000000" stroke="none">
<path d="M6227 6303 c-2 -1 -32 -5 -67 -8 -35 -4 -67 -8 -71 -10 -4 -3 -24 -7
-45 -11 -49 -7 -143 -39 -210 -70 -28 -13 -56 -24 -62 -24 -7 0 -12 -4 -12
-10 0 -5 -5 -10 -12 -10 -15 0 -149 -91 -192 -131 -17 -15 -43 -38 -57 -51
-40 -36 -139 -154 -139 -165 0 -6 -7 -16 -15 -23 -40 -33 -85 -160 -92 -260
-9 -136 17 -211 147 -425 27 -44 53 -84 57 -90 5 -5 12 -17 16 -25 4 -8 17
-32 29 -52 66 -105 185 -302 202 -333 6 -11 23 -38 36 -60 40 -66 43 -71 177
-291 139 -229 128 -220 170 -144 11 19 53 91 93 160 40 69 83 143 95 165 13
22 46 81 74 130 28 50 55 97 61 105 10 17 103 178 131 226 9 17 23 42 31 55 7
13 15 26 18 29 5 5 12 17 55 96 14 27 35 63 46 79 10 17 22 36 26 44 7 15 120
211 160 276 13 22 29 52 36 68 6 15 15 27 19 27 4 0 8 4 8 9 0 5 19 42 43 83
24 40 56 96 72 123 15 28 39 70 53 95 14 25 33 58 43 74 l18 29 -91 54 c-49
29 -92 53 -94 53 -1 0 -29 15 -61 34 -32 18 -79 45 -106 59 -52 30 -257 101
-265 93 -2 -3 -12 -1 -22 4 -27 14 -292 35 -303 23z"/>
<path d="M717 6224 c-1 -1 -42 -5 -92 -8 -49 -3 -101 -8 -115 -11 -14 -3 -38
-8 -55 -11 -59 -10 -150 -36 -224 -63 -138 -51 -267 -121 -222 -121 5 0 14
-12 20 -27 6 -16 19 -40 29 -55 9 -14 44 -71 77 -125 33 -54 63 -99 68 -101 4
-2 7 -8 7 -13 0 -4 31 -58 70 -120 39 -61 70 -115 70 -120 0 -5 5 -9 10 -9 6
0 10 -4 10 -9 0 -12 150 -253 163 -262 5 -3 7 -9 5 -12 -1 -4 5 -16 15 -27 9
-11 17 -23 17 -26 0 -3 46 -79 103 -170 125 -201 133 -215 177 -288 19 -32 42
-68 50 -81 29 -45 165 -265 185 -299 11 -19 63 -102 115 -186 52 -84 104 -167
115 -186 11 -18 40 -66 65 -106 25 -40 47 -77 49 -83 2 -5 8 -14 13 -20 5 -5
45 -68 88 -140 44 -71 84 -137 90 -145 5 -8 30 -49 55 -90 26 -41 71 -113 100
-160 30 -47 54 -88 55 -92 0 -4 7 -16 15 -25 8 -10 15 -22 14 -27 0 -5 3 -12
8 -15 13 -9 163 -250 163 -262 0 -5 5 -9 10 -9 6 0 10 -4 10 -10 0 -8 33 -65
70 -120 6 -8 90 -144 188 -303 97 -158 184 -298 192 -311 8 -13 31 -50 50 -82
34 -59 73 -120 87 -139 5 -5 17 -27 28 -48 11 -20 23 -37 27 -37 5 0 8 -5 8
-11 0 -33 180 -239 290 -330 102 -86 322 -218 389 -235 9 -2 59 -19 111 -37
52 -19 98 -34 103 -34 14 -2 92 -15 112 -20 69 -15 286 -20 395 -10 30 3 55 6
55 7 0 1 11 3 25 5 46 6 215 47 225 55 6 4 24 10 40 14 17 4 76 30 132 57
l102 49 -17 31 c-22 39 -29 52 -75 122 -20 31 -37 59 -37 61 0 3 -18 32 -40
65 -22 33 -40 65 -40 71 0 5 -4 10 -10 10 -5 0 -10 4 -10 10 0 9 -69 123 -90
147 -5 7 -10 14 -10 17 0 5 -181 300 -259 421 -14 22 -25 43 -24 46 1 4 -7 15
-17 24 -11 10 -20 22 -20 26 0 5 -15 32 -34 61 -74 118 -89 143 -85 144 2 1
-4 11 -14 22 -10 11 -26 34 -35 50 -28 48 -175 287 -181 292 -3 3 -17 26 -31
53 -13 26 -28 47 -31 47 -4 0 -9 8 -12 18 -4 9 -27 49 -52 87 -25 39 -50 81
-56 95 -5 13 -13 27 -17 30 -11 8 -92 140 -92 150 0 4 -3 10 -7 12 -8 3 -73
105 -73 114 0 3 -5 10 -11 17 -8 10 -180 285 -248 399 -9 15 -42 69 -74 120
-32 51 -63 102 -70 112 -7 11 -36 57 -64 103 -29 45 -53 87 -53 93 0 5 -4 10
-10 10 -5 0 -10 4 -10 9 0 12 -63 115 -72 119 -5 2 -8 8 -8 13 0 5 -17 35 -37
66 -21 32 -43 67 -49 78 -6 11 -81 133 -166 270 -85 138 -199 322 -253 410
-54 88 -111 179 -127 202 -15 23 -28 45 -28 48 0 9 -114 173 -145 210 -54 62
-137 145 -182 182 -27 21 -54 44 -62 51 -66 63 -343 209 -431 227 -8 2 -15 4
-15 5 0 10 -248 60 -323 65 -132 10 -152 11 -155 9z"/>
<path d="M2990 6177 c-3 -3 -27 -7 -55 -11 -108 -13 -146 -22 -263 -61 -56
-19 -140 -54 -187 -77 l-85 -42 27 -45 c14 -25 31 -55 37 -66 6 -11 13 -22 17
-25 5 -5 42 -64 69 -111 8 -15 56 -92 105 -173 50 -80 100 -165 113 -188 13
-24 29 -50 36 -58 7 -8 46 -70 87 -138 41 -68 82 -135 91 -150 9 -15 23 -38
31 -52 8 -14 65 -108 127 -210 63 -102 155 -252 205 -335 50 -82 122 -198 158
-258 37 -59 67 -112 67 -117 0 -6 5 -10 10 -10 6 0 10 -5 10 -10 0 -6 18 -38
40 -71 22 -33 40 -62 40 -64 0 -1 59 -98 130 -215 72 -117 130 -216 130 -221
0 -5 4 -9 9 -9 5 0 11 -8 15 -17 3 -10 19 -38 36 -63 16 -25 33 -52 37 -60 9
-20 76 -124 84 -130 4 -3 24 -27 44 -55 44 -58 159 -173 225 -226 137 -109
317 -203 490 -257 228 -71 461 -83 720 -38 56 10 186 48 199 59 8 7 15 10 15
8 2 -8 52 12 144 56 51 24 91 47 88 51 -2 4 -22 37 -45 75 -22 37 -41 72 -41
77 0 6 -4 10 -8 10 -5 0 -17 17 -29 38 -11 20 -71 120 -133 222 -62 102 -136
223 -164 270 -28 47 -53 87 -56 90 -3 3 -39 61 -80 130 -41 69 -80 131 -87
138 -6 6 -15 22 -19 35 -4 12 -10 24 -14 27 -3 3 -22 31 -41 63 -19 32 -38 66
-44 76 -5 9 -59 95 -118 191 -60 96 -112 182 -117 190 -5 8 -32 52 -60 98 -27
46 -50 86 -50 88 0 3 -5 10 -10 17 -21 25 -270 437 -270 447 0 5 -4 10 -8 10
-5 0 -16 15 -25 33 -10 17 -26 46 -37 62 -11 17 -29 48 -41 69 -11 21 -36 61
-55 87 -19 27 -35 52 -36 56 -3 16 -75 127 -129 202 -141 190 -336 349 -554
451 -49 23 -97 44 -105 45 -8 2 -46 16 -85 30 -38 14 -72 25 -75 25 -8 -2 -83
13 -132 26 -27 7 -372 17 -378 11z"/>
</g>
</svg>
